<?xml version="1.0" encoding="iso-8859-1"?>
<!-- Generator: Adobe Illustrator 19.0.0, SVG Export Plug-In . SVG Version: 6.00 Build 0)  -->
<svg version="1.1" id="Layer_1" xmlns="http://www.w3.org/2000/svg" xmlns:xlink="http://www.w3.org/1999/xlink" x="0px" y="0px"
	 viewBox="0 0 494.999 494.999" style="enable-background:new 0 0 494.999 494.999;" xml:space="preserve">
<g>
	<path style="fill:#111111;" d="M84.774,196.954H40.944c3.559-37.471,17.128-72.898,39.773-103.456l25.058-33.813L73.639,35.869
		L48.581,69.682C16.798,112.569,0,163.495,0,216.954v20h84.794c-0.801-6.557-1.222-13.23-1.222-20
		C83.572,210.218,83.977,203.543,84.774,196.954z"/>
	<path style="fill:#111111;" d="M26.879,275.97l13.681,37.588l60.908-22.169c-6.027-11.777-10.671-24.374-13.716-37.575
		L26.879,275.97z"/>
	<path style="fill:#111111;" d="M110.05,306.18l-49.68,41.686l25.711,30.643l49.706-41.707
		C126.021,327.693,117.366,317.412,110.05,306.18z"/>
	<path style="fill:#111111;" d="M116.8,403.333l-11.738,17.243l18.604,10.783c22.529,13.058,46.892,22.401,72.411,27.771
		l8.236-39.143c-14.804-3.115-29.139-7.826-42.821-14.063l21.979-38.069c-12.389-5.277-23.998-12.039-34.608-20.057L116.8,403.333z"
		/>
	<path style="fill:#111111;" d="M333.507,405.924c-13.682,6.237-28.019,10.949-42.821,14.063l8.235,39.143
		c25.515-5.368,49.875-14.71,72.405-27.768l17.354-10.17l-10.15-17.285l-32.395-56.109c-10.61,8.018-22.219,14.78-34.608,20.057
		L333.507,405.924z"/>
	<path style="fill:#111111;" d="M359.213,336.802l49.706,41.707l25.711-30.643l-49.68-41.686
		C377.633,317.412,368.978,327.693,359.213,336.802z"/>
	<path style="fill:#111111;" d="M454.439,313.558l13.681-37.588l-60.873-22.156c-3.045,13.202-7.689,25.798-13.716,37.575
		L454.439,313.558z"/>
	<path style="fill:#111111;" d="M410.205,236.954h84.794v-20c0-53.459-16.798-104.385-48.581-147.272L421.36,35.869l-32.137,23.816
		l25.058,33.813c22.646,30.558,36.215,65.985,39.774,103.456h-43.829c0.797,6.589,1.201,13.264,1.201,20
		C411.427,223.724,411.006,230.397,410.205,236.954z"/>
	<rect x="192" y="91.35" style="fill:#111111;" width="40" height="20"/>
	<rect x="255.724" y="91.35" style="fill:#111111;" width="40" height="20"/>
	<path style="fill:#111111;" d="M121.722,111.35l-5.997,8.092c-17.033,22.984-27.561,49.468-30.951,77.513
		c-0.797,6.589-1.201,13.264-1.201,20c0,6.77,0.421,13.443,1.222,20c0.698,5.714,1.685,11.341,2.958,16.859
		c3.045,13.202,7.689,25.798,13.716,37.575c2.606,5.091,5.476,10.024,8.581,14.792c7.316,11.232,15.971,21.513,25.736,30.622
		c4.164,3.884,8.527,7.557,13.078,10.996c10.61,8.018,22.219,14.78,34.608,20.057c19.681,8.382,41.322,13.026,64.029,13.026V111.35
		H121.722z"/>
	<path style="fill:#111111;" d="M411.427,216.954c0-6.736-0.405-13.411-1.201-20c-3.39-28.045-13.919-54.528-30.951-77.513
		l-5.997-8.092H247.5v269.531c22.706,0,44.348-4.644,64.029-13.026c12.389-5.277,23.998-12.039,34.608-20.057
		c4.55-3.439,8.913-7.112,13.078-10.996c9.765-9.108,18.42-19.39,25.736-30.622c3.105-4.767,5.976-9.701,8.581-14.792
		c6.027-11.777,10.671-24.374,13.716-37.575c1.273-5.519,2.259-11.145,2.958-16.859
		C411.006,230.397,411.427,223.724,411.427,216.954z"/>
</g>
<g>
</g>
<g>
</g>
<g>
</g>
<g>
</g>
<g>
</g>
<g>
</g>
<g>
</g>
<g>
</g>
<g>
</g>
<g>
</g>
<g>
</g>
<g>
</g>
<g>
</g>
<g>
</g>
<g>
</g>
</svg>
