
<svg width="491px" height="425px" viewBox="0 0 491 425" version="1.1" xmlns="http://www.w3.org/2000/svg" xmlns:xlink="http://www.w3.org/1999/xlink">
    <g id="Page-1" stroke="none" stroke-width="1" fill="none" fill-rule="evenodd">
        <g id="crab_bw" transform="translate(-0.000000, 0.869000)" fill="#000000" fill-rule="nonzero">
            <path d="M84.774,161.085 L40.944,161.085 C44.503,123.614 58.072,88.187 80.717,57.629 L105.775,23.816 L73.639,1.42108547e-14 L48.581,33.813 C16.798,76.7 0,127.626 0,181.085 L0,201.085 L84.794,201.085 C83.993,194.528 83.572,187.855 83.572,181.085 C83.572,174.349 83.977,167.674 84.774,161.085 Z" id="Path"></path>
            <path d="M26.879,240.101 L40.56,277.689 L101.468,255.52 C95.441,243.743 90.797,231.146 87.752,217.945 L26.879,240.101 Z" id="Path"></path>
            <path d="M110.05,270.311 L60.37,311.997 L86.081,342.64 L135.787,300.933 C126.021,291.824 117.366,281.543 110.05,270.311 Z" id="Path"></path>
            <path d="M116.8,367.464 L105.062,384.707 L123.666,395.49 C146.195,408.548 170.558,417.891 196.077,423.261 L204.313,384.118 C189.509,381.003 175.174,376.292 161.492,370.055 L183.471,331.986 C171.082,326.709 159.473,319.947 148.863,311.929 L116.8,367.464 Z" id="Path"></path>
            <path d="M329.507,370.055 C315.825,376.292 301.488,381.004 286.686,384.118 L294.921,423.261 C320.436,417.893 344.796,408.551 367.326,395.493 L384.68,385.323 L374.53,368.038 L342.135,311.929 C331.525,319.947 319.916,326.709 307.527,331.986 L329.507,370.055 Z" id="Path"></path>
            <path d="M355.213,300.933 L404.919,342.64 L430.63,311.997 L380.95,270.311 C373.633,281.543 364.978,291.824 355.213,300.933 Z" id="Path"></path>
            <path d="M450.439,277.689 L464.12,240.101 L403.247,217.945 C400.202,231.147 395.558,243.743 389.531,255.52 L450.439,277.689 Z" id="Path"></path>
            <path d="M406.205,201.085 L490.999,201.085 L490.999,181.085 C490.999,127.626 474.201,76.7 442.418,33.813 L417.36,1.42108547e-14 L385.223,23.816 L410.281,57.629 C432.927,88.187 446.496,123.614 450.055,161.085 L406.226,161.085 C407.023,167.674 407.427,174.349 407.427,181.085 C407.427,187.855 407.006,194.528 406.205,201.085 Z" id="Path"></path>
            <rect id="Rectangle" x="190" y="55.481" width="40" height="20"></rect>
            <rect id="Rectangle" x="253.724" y="55.481" width="40" height="20"></rect>
            <path d="M120.722,75.481 L114.725,83.573 C97.692,106.557 87.164,133.041 83.774,161.086 C82.977,167.675 82.573,174.35 82.573,181.086 C82.573,187.856 82.994,194.529 83.795,201.086 C84.493,206.8 85.48,212.427 86.753,217.945 C89.798,231.147 94.442,243.743 100.469,255.52 C103.075,260.611 105.945,265.544 109.05,270.312 C116.366,281.544 125.021,291.825 134.786,300.934 C138.95,304.818 143.313,308.491 147.864,311.93 C158.474,319.948 170.083,326.71 182.472,331.987 C202.153,340.369 223.794,345.013 246.501,345.013 L246.501,75.481 L120.722,75.481 Z" id="Path"></path>
            <path d="M409.427,181.085 C409.427,174.349 409.022,167.674 408.226,161.085 C404.836,133.04 394.307,106.557 377.275,83.572 L371.278,75.48 L245.5,75.48 L245.5,345.011 C268.206,345.011 289.848,340.367 309.529,331.985 C321.918,326.708 333.527,319.946 344.137,311.928 C348.687,308.489 353.05,304.816 357.215,300.932 C366.98,291.824 375.635,281.542 382.951,270.31 C386.056,265.543 388.927,260.609 391.532,255.518 C397.559,243.741 402.203,231.144 405.248,217.943 C406.521,212.424 407.507,206.798 408.206,201.084 C409.006,194.528 409.427,187.855 409.427,181.085 Z" id="Path"></path>
        </g>
    </g>
</svg>